<?xml version="1.0" standalone="no"?><!DOCTYPE svg PUBLIC "-//W3C//DTD SVG 1.1//EN" "http://www.w3.org/Graphics/SVG/1.1/DTD/svg11.dtd"><svg t="1496128158175" class="icon" style="" viewBox="0 0 1024 1024" version="1.1" xmlns="http://www.w3.org/2000/svg" p-id="5113" xmlns:xlink="http://www.w3.org/1999/xlink" width="200" height="200"><defs><style type="text/css"></style></defs><path d="M512 610.018c-52.467 0-95-42.533-95-95L417 142.981c0-52.467 42.533-95 95-95s95 42.533 95 95l0 372.037C607 567.485 564.467 610.018 512 610.018z" p-id="5114" fill="#707070"></path><path d="M902.333 541.322 512 979.168 121.667 541.322Z" p-id="5115" fill="#707070"></path><path d="M512 1007.256c-8.009 0-15.637-3.419-20.966-9.396L100.701 560.013c-7.365-8.263-9.192-20.079-4.665-30.18 4.527-10.1 14.563-16.6 25.631-16.6l780.666 0c11.068 0 21.104 6.5 25.631 16.6 4.527 10.101 2.7 21.917-4.665 30.18L532.966 997.859C527.637 1003.837 520.009 1007.256 512 1007.256zM184.336 569.41 512 936.959 839.664 569.41 184.336 569.41z" p-id="5116" fill="#707070"></path></svg>