<?xml version="1.0" standalone="no"?><!DOCTYPE svg PUBLIC "-//W3C//DTD SVG 1.1//EN" "http://www.w3.org/Graphics/SVG/1.1/DTD/svg11.dtd"><svg t="1495932915575" class="icon" style="" viewBox="0 0 1024 1024" version="1.1" xmlns="http://www.w3.org/2000/svg" p-id="2651" xmlns:xlink="http://www.w3.org/1999/xlink" width="200" height="200"><defs><style type="text/css"></style></defs><path d="M913.11761 959.462125 727.85314 959.462125c-25.575492 0-46.315862-20.729114-46.315862-46.310745 0-25.586748 20.74037-46.315862 46.315862-46.315862l73.441663 0L571.046814 636.58139l0.056282-0.050142c-8.064676-8.332782-13.07376-19.643386-13.07376-32.146141 0-25.581632 20.735253-46.322002 46.310745-46.322002 12.519128 0 23.818475 5.0142 32.151257 13.07376l0.061398-0.050142L866.795609 801.329595l0-73.441663c0-25.575492 20.74037-46.315862 46.322002-46.315862 25.575492 0 46.310745 20.74037 46.310745 46.315862l0 185.264471C959.428356 938.733011 938.693102 959.462125 913.11761 959.462125zM913.11761 341.92958c-25.581632 0-46.322002-20.735253-46.322002-46.322002l0-73.436546L636.552737 452.413903l-0.061398-0.050142c-8.332782 8.058536-19.632129 13.07376-32.151257 13.07376-25.575492 0-46.310745-20.74037-46.310745-46.315862 0-12.514012 5.009084-23.818475 13.07376-32.151257l-0.056282-0.056282 230.247988-230.247988-73.441663 0c-25.575492 0-46.315862-20.729114-46.315862-46.310745s20.74037-46.322002 46.315862-46.322002l185.264471 0c25.575492 0 46.310745 20.74037 46.310745 46.322002l0 185.253214C959.428356 321.194326 938.693102 341.92958 913.11761 341.92958zM452.380134 636.58139l-230.254128 230.254128 73.447802 0c25.581632 0 46.322002 20.729114 46.322002 46.315862 0 25.581632-20.74037 46.310745-46.322002 46.310745L110.314455 959.462125c-25.575492 0-46.315862-20.729114-46.315862-46.310745L63.998593 727.887932c0-25.575492 20.74037-46.315862 46.315862-46.315862 25.581632 0 46.315862 20.74037 46.315862 46.315862l0 73.441663 230.247988-230.242871 0.050142 0.050142c8.338922-8.058536 19.643386-13.07376 32.151257-13.07376 25.581632 0 46.322002 20.74037 46.322002 46.322002 0 12.502755-5.0142 23.813359-13.07376 32.146141L452.380134 636.58139zM419.080727 465.437521c-12.507872 0-23.812335-5.0142-32.151257-13.07376l-0.050142 0.050142L156.630317 222.171032l0 73.436546c0 25.586748-20.735253 46.322002-46.315862 46.322002-25.575492 0-46.315862-20.735253-46.315862-46.322002L63.998593 110.354364c0-25.581632 20.74037-46.322002 46.315862-46.322002l185.258331 0c25.581632 0 46.322002 20.74037 46.322002 46.322002s-20.74037 46.310745-46.322002 46.310745l-73.447802 0 230.254128 230.247988-0.050142 0.056282c8.058536 8.332782 13.07376 19.638269 13.07376 32.151257C465.402729 444.697151 444.662359 465.437521 419.080727 465.437521z" p-id="2652"></path></svg>